<svg id="Capa_1" enable-background="new 0 0 512 512" height="512" viewBox="0 0 512 512" width="512" xmlns="http://www.w3.org/2000/svg"><g><path d="m463.942 148.378c-1.382-3.905-5.667-5.952-9.572-4.568-3.905 1.382-5.95 5.667-4.568 9.572 3.896 11.008 5.87 22.567 5.87 34.358 0 56.877-46.273 103.15-103.15 103.15s-103.149-46.273-103.149-103.15c0-56.883 46.272-103.16 103.149-103.16 33.591 0 65.168 16.432 84.47 43.956 2.379 3.392 7.057 4.212 10.446 1.834 3.392-2.378 4.213-7.056 1.835-10.447-22.107-31.523-58.276-50.343-96.752-50.343-11.513 0-22.644 1.663-33.173 4.748 4.829-14.445 7.281-29.525 7.281-45.028 0-16.156-13.144-29.3-29.3-29.3-13.564 0-25.001 9.267-28.323 21.8h-170.054c-3.321-12.533-14.758-21.8-28.323-21.8-16.156 0-29.3 13.144-29.3 29.3 0 46.159 22.044 87.261 56.151 113.351-35.34 26.974-56.148 68.583-56.148 113.349 0 46.158 22.043 87.259 56.149 113.348-35.343 26.975-56.152 68.585-56.152 113.352 0 16.156 13.144 29.3 29.3 29.3 13.564 0 25.001-9.267 28.323-21.8h170.057c3.322 12.534 14.759 21.8 28.323 21.8 16.156 0 29.3-13.144 29.3-29.3 0-46.157-22.042-87.257-56.146-113.347 22.775-17.4 39.769-41.131 48.815-68.225 10.543 3.094 21.69 4.762 33.221 4.762 65.148 0 118.15-53.002 118.15-118.15-.001-13.5-2.264-26.743-6.73-39.362zm-205.759 147.152h-148.331c-5.277-9.869-8.564-20.751-9.578-32.03h161.66c1.625 1.939 3.305 3.83 5.049 5.661-1.482 9.433-4.505 18.305-8.8 26.369zm-6.954-47.03h-150.946c1.022-11.493 4.356-22.327 9.55-32.03h128.077c2.866 11.423 7.395 22.191 13.319 32.03zm-67.248-76.55c18.16 0 35.921 5.961 50.404 16.847.038 4.282.305 8.51.789 12.673h-115.075c15.428-18.047 38.334-29.52 63.882-29.52zm99.049-142.65c0-7.885 6.415-14.3 14.3-14.3s14.3 6.415 14.3 14.3c0 18.29-3.802 35.919-11.286 52.448-21.242 10.501-38.893 27.2-50.575 47.723-7.917-4.127-16.186-7.491-24.7-10.054 34.165-15.64 57.961-50.151 57.961-90.117zm-24.903 39.53h-148.295c-5.194-9.703-8.529-20.537-9.551-32.03h167.396c-1.021 11.493-4.356 22.327-9.55 32.03zm-10.265 15c-15.428 18.047-38.334 29.52-63.882 29.52s-48.455-11.473-63.883-29.52zm-191.532-54.53c0-7.885 6.415-14.3 14.3-14.3s14.3 6.415 14.3 14.3c0 54.617 44.434 99.05 99.051 99.05 20.678 0 41.007 5.044 59.213 14.609-3.7 9.002-6.319 18.557-7.695 28.505-15.44-9.417-33.304-14.513-51.514-14.514h-.001s-.001 0-.001 0 0 0-.001 0c-70.389 0-127.652-57.263-127.652-127.65zm28.598 453.4c0 7.885-6.415 14.3-14.3 14.3s-14.3-6.415-14.3-14.3c0-41.731 20.212-80.407 54.296-104.403 10.014 6.029 20.825 10.859 32.233 14.301-34.148 15.647-57.929 50.148-57.929 90.102zm24.903-39.53h148.298c5.194 9.703 8.529 20.537 9.55 32.03h-167.398c1.021-11.493 4.356-22.327 9.55-32.03zm10.265-15c15.428-18.047 38.334-29.52 63.882-29.52h.004c25.549 0 48.455 11.473 63.882 29.52zm191.535 54.53c0 7.885-6.415 14.3-14.3 14.3s-14.3-6.415-14.3-14.3c0-54.617-44.434-99.05-99.05-99.05-70.387 0-127.65-57.264-127.65-127.65 0-41.73 20.211-80.405 54.293-104.401 10.014 6.029 20.825 10.859 32.234 14.3-34.147 15.648-57.927 50.148-57.927 90.101 0 28.549 12.365 55.725 33.927 74.559 1.422 1.242 3.18 1.852 4.931 1.852 2.09 0 4.169-.869 5.651-2.566 2.725-3.12 2.405-7.857-.715-10.583-3.108-2.715-5.985-5.638-8.629-8.732h127.869c-15.49 18.155-38.525 29.52-63.984 29.52-11.021 0-21.731-2.111-31.831-6.274-3.832-1.579-8.214.247-9.793 4.076-1.578 3.83.247 8.214 4.076 9.792 11.922 4.914 24.555 7.406 37.547 7.406h.001.001c70.386 0 127.649 57.263 127.649 127.65zm-54.295-122.299c-10.008-6.026-20.813-10.854-32.216-14.295 26.709-12.199 47.201-35.934 54.75-65.256 7.732 6.047 16.236 11.148 25.333 15.14-8.581 25.982-25.331 48.537-47.867 64.411z"/><path d="m339.994 272.59h25.056c11.445 0 20.757-9.312 20.757-20.757v-30.812h30.813c11.445 0 20.757-9.312 20.757-20.757v-25.055c0-11.446-9.312-20.758-20.757-20.758h-30.813v-30.812c0-11.446-9.312-20.757-20.757-20.757h-25.056c-11.445 0-20.757 9.312-20.757 20.757v30.812h-30.812c-11.446 0-20.758 9.312-20.758 20.758v25.055c0 11.446 9.312 20.757 20.758 20.757h30.812v30.812c0 11.446 9.311 20.757 20.757 20.757zm-51.57-66.569c-3.175 0-5.758-2.583-5.758-5.757v-25.055c0-3.175 2.583-5.758 5.758-5.758h38.312c4.143 0 7.5-3.358 7.5-7.5v-38.312c0-3.175 2.582-5.757 5.757-5.757h25.056c3.175 0 5.757 2.583 5.757 5.757v38.312c0 4.142 3.357 7.5 7.5 7.5h38.313c3.175 0 5.757 2.583 5.757 5.758v25.055c0 3.175-2.582 5.757-5.757 5.757h-38.313c-4.143 0-7.5 3.358-7.5 7.5v38.312c0 3.175-2.582 5.757-5.757 5.757h-25.056c-3.175 0-5.757-2.583-5.757-5.757v-38.312c0-4.142-3.357-7.5-7.5-7.5z"/></g></svg>