<svg id="Layer_1" height="512" viewBox="0 0 512 512" width="512" xmlns="http://www.w3.org/2000/svg" data-name="Layer 1"><path d="m16 474h480a6.211 6.211 0 0 0 5.243-9.165l-144.243-259.235v-71.6h102.976a6.263 6.263 0 0 0 4.511-10.3l-30.222-34.521 30.222-34.5a5.772 5.772 0 0 0 .953-6.3 5.874 5.874 0 0 0 -5.464-3.379h-102.976v-.671a6 6 0 0 0 -12 0v161.931l-72.865 137.9-23.714-35.389a6 6 0 0 0 -9.969 0l-40.56 60.529-56.617-84.491a6 6 0 0 0 -9.968 0l-120.291 179.522a6.3 6.3 0 0 0 -.309 6.329 6.157 6.157 0 0 0 5.293 3.34zm341-417h89.735l-24.962 28.318a6.2 6.2 0 0 0 0 8.062l24.961 28.62h-89.734zm-5.7 163.273 134.494 241.727h-226.009l-20.224-30.347zm-107.863 102.615 22.329 33.322-33.793 63.954-26.86-40.083zm-107.146-23.63 109.049 162.742h-218.097z"/><path d="m336.359 289.232a6 6 0 0 0 8.138-2.405l2.052-3.773a6 6 0 0 0 -10.543-5.732l-2.052 3.773a6 6 0 0 0 2.405 8.137z"/><path d="m290.016 374.445a6 6 0 0 0 8.136-2.4l36.311-66.765a6 6 0 1 0 -10.541-5.734l-36.311 66.765a6 6 0 0 0 2.405 8.134z"/></svg>