<svg id="Capa_1" enable-background="new 0 0 512 512" height="512" viewBox="0 0 512 512" width="512" xmlns="http://www.w3.org/2000/svg"><g><path d="m95.127 149.209h218c4.142 0 7.5-3.357 7.5-7.5v-48.839c0-4.143-3.358-7.5-7.5-7.5h-218c-4.142 0-7.5 3.357-7.5 7.5v48.839c0 4.143 3.357 7.5 7.5 7.5zm7.5-48.839h203v33.839h-203z"/><path d="m127.65 185.489h-32.523c-4.142 0-7.5 3.357-7.5 7.5v32.523c0 4.143 3.358 7.5 7.5 7.5h32.523c4.142 0 7.5-3.357 7.5-7.5v-32.523c0-4.142-3.358-7.5-7.5-7.5zm-7.5 32.524h-17.523v-17.523h17.523z"/><path d="m165.186 200.489h62.49c4.142 0 7.5-3.357 7.5-7.5s-3.358-7.5-7.5-7.5h-62.49c-4.142 0-7.5 3.357-7.5 7.5s3.358 7.5 7.5 7.5z"/><path d="m127.65 263.241h-32.523c-4.142 0-7.5 3.357-7.5 7.5v32.523c0 4.143 3.358 7.5 7.5 7.5h32.523c4.142 0 7.5-3.357 7.5-7.5v-32.523c0-4.142-3.358-7.5-7.5-7.5zm-7.5 32.524h-17.523v-17.523h17.523z"/><path d="m165.186 278.241h62.49c4.142 0 7.5-3.357 7.5-7.5s-3.358-7.5-7.5-7.5h-62.49c-4.142 0-7.5 3.357-7.5 7.5s3.358 7.5 7.5 7.5z"/><path d="m127.65 340.994h-32.523c-4.142 0-7.5 3.357-7.5 7.5v32.523c0 4.143 3.358 7.5 7.5 7.5h32.523c4.142 0 7.5-3.357 7.5-7.5v-32.523c0-4.142-3.358-7.5-7.5-7.5zm-7.5 32.524h-17.523v-17.523h17.523z"/><path d="m165.186 355.994h62.49c4.142 0 7.5-3.357 7.5-7.5s-3.358-7.5-7.5-7.5h-62.49c-4.142 0-7.5 3.357-7.5 7.5s3.358 7.5 7.5 7.5z"/><path d="m127.65 418.747h-32.523c-4.142 0-7.5 3.357-7.5 7.5v32.523c0 4.143 3.358 7.5 7.5 7.5h32.523c4.142 0 7.5-3.357 7.5-7.5v-32.523c0-4.143-3.358-7.5-7.5-7.5zm-7.5 32.524h-17.523v-17.523h17.523z"/><path d="m165.186 418.747c-4.142 0-7.5 3.357-7.5 7.5s3.358 7.5 7.5 7.5h62.49c4.142 0 7.5-3.357 7.5-7.5s-3.358-7.5-7.5-7.5z"/><path d="m475.714 327.841-68.472-118.598c-6.282-10.412-18.119-16.711-31.26-14.276v-141.313c0-16.457-13.389-29.846-29.846-29.846h-25.509v-16.308c0-4.143-3.358-7.5-7.5-7.5s-7.5 3.357-7.5 7.5v16.309h-203v-16.309c0-4.143-3.358-7.5-7.5-7.5s-7.5 3.357-7.5 7.5v16.309h-25.51c-16.457 0-29.846 13.389-29.846 29.846v428.5c.001 16.456 13.389 29.845 29.846 29.845h284.019c16.457 0 29.846-13.389 29.846-29.846v-109.898h74.089c10.705 0 20.291-5.534 25.643-14.805 5.353-9.27 5.353-20.34 0-29.61zm-114.732 154.313c0 8.186-6.66 14.846-14.846 14.846h-284.019c-8.186 0-14.846-6.66-14.846-14.846v-428.5c0-8.186 6.66-14.846 14.846-14.846h25.509v16.309c0 4.143 3.358 7.5 7.5 7.5s7.5-3.357 7.5-7.5v-16.308h203v16.309c0 4.143 3.358 7.5 7.5 7.5s7.5-3.357 7.5-7.5v-16.309h25.509c8.186 0 14.846 6.66 14.846 14.846v149.115c-1.926 1.883-3.624 4.047-5.026 6.474l-68.472 118.598c-5.353 9.271-5.353 20.34 0 29.61 5.352 9.271 14.938 14.805 25.643 14.805h47.855v109.897zm101.742-132.203c-2.641 4.574-7.371 7.305-12.653 7.305h-136.944c-5.282 0-10.012-2.73-12.653-7.305s-2.641-10.036 0-14.61l68.472-118.598c2.641-4.574 7.371-7.305 12.653-7.305s10.012 2.73 12.653 7.305l68.472 118.598c2.64 4.574 2.641 10.036 0 14.61z"/><path d="m381.599 310.765c4.142 0 7.5-3.357 7.5-7.5v-52.28c0-4.143-3.358-7.5-7.5-7.5s-7.5 3.357-7.5 7.5v52.28c0 4.142 3.358 7.5 7.5 7.5z"/><path d="m296.095 218.013h-130.909c-4.142 0-7.5 3.357-7.5 7.5s3.358 7.5 7.5 7.5h130.909c4.142 0 7.5-3.357 7.5-7.5s-3.358-7.5-7.5-7.5z"/><path d="m165.186 310.765h90.807c4.142 0 7.5-3.357 7.5-7.5s-3.358-7.5-7.5-7.5h-90.807c-4.142 0-7.5 3.357-7.5 7.5s3.358 7.5 7.5 7.5z"/><path d="m275.72 381.018c0-4.143-3.358-7.5-7.5-7.5h-103.034c-4.142 0-7.5 3.357-7.5 7.5s3.358 7.5 7.5 7.5h103.034c4.142 0 7.5-3.358 7.5-7.5z"/><path d="m296.095 451.271h-130.909c-4.142 0-7.5 3.357-7.5 7.5s3.358 7.5 7.5 7.5h130.909c4.142 0 7.5-3.357 7.5-7.5s-3.358-7.5-7.5-7.5z"/><circle cx="381.599" cy="331.68" r="7.5"/></g></svg>