<svg id="Capa_1" enable-background="new 0 0 512 512" height="512" viewBox="0 0 512 512" width="512" xmlns="http://www.w3.org/2000/svg"><g><path d="m448.07 2.93c-1.86-1.861-4.44-2.93-7.07-2.93h-370c-2.63 0-5.21 1.069-7.07 2.93-1.86 1.86-2.93 4.429-2.93 7.07v492c0 2.63 1.07 5.21 2.93 7.069 1.86 1.861 4.44 2.931 7.07 2.931h370c2.63 0 5.21-1.07 7.07-2.931 1.86-1.859 2.93-4.439 2.93-7.069v-57c0-5.521-4.49-10-10-10s-10 4.479-10 10v47h-350v-472h350v335c0 5.51 4.49 10 10 10s10-4.49 10-10v-345c0-2.641-1.07-5.21-2.93-7.07z"/><circle cx="441" cy="400" r="10"/><path d="m368.5 90c0-5.522-4.477-10-10-10h-80c-5.523 0-10 4.478-10 10s4.477 10 10 10h80c5.523 0 10-4.478 10-10z"/><path d="m243.5 90c0-5.522-4.477-10-10-10h-80c-5.523 0-10 4.478-10 10s4.477 10 10 10h80c5.523 0 10-4.478 10-10z"/><path d="m306 50c0-5.522-4.477-10-10-10h-80c-5.523 0-10 4.478-10 10s4.477 10 10 10h80c5.523 0 10-4.478 10-10z"/><path d="m246 472c5.523 0 10-4.478 10-10v-322c0-5.522-4.477-10-10-10s-10 4.478-10 10v322c0 5.522 4.477 10 10 10z"/><path d="m176 211h15c5.523 0 10-4.478 10-10s-4.477-10-10-10h-15c-5.523 0-10 4.478-10 10s4.477 10 10 10z"/><path d="m366 211h15c5.523 0 10-4.478 10-10s-4.477-10-10-10h-15c-5.523 0-10 4.478-10 10s4.477 10 10 10z"/><path d="m206 151h-30c-5.523 0-10 4.478-10 10s4.477 10 10 10h30c5.523 0 10-4.478 10-10s-4.477-10-10-10z"/><path d="m401 151h-35c-5.523 0-10 4.478-10 10s4.477 10 10 10h35c5.523 0 10-4.478 10-10s-4.477-10-10-10z"/><path d="m366 291h15c5.523 0 10-4.478 10-10s-4.477-10-10-10h-15c-5.523 0-10 4.478-10 10s4.477 10 10 10z"/><path d="m401 231h-35c-5.523 0-10 4.478-10 10s4.477 10 10 10h35c5.523 0 10-4.478 10-10s-4.477-10-10-10z"/><path d="m366 371h15c5.523 0 10-4.478 10-10s-4.477-10-10-10h-15c-5.523 0-10 4.478-10 10s4.477 10 10 10z"/><path d="m401 311h-35c-5.523 0-10 4.478-10 10s4.477 10 10 10h35c5.523 0 10-4.478 10-10s-4.477-10-10-10z"/><path d="m366 431c-5.523 0-10 4.478-10 10s4.477 10 10 10h15c5.523 0 10-4.478 10-10s-4.477-10-10-10z"/><path d="m411 401c0-5.522-4.477-10-10-10h-35c-5.523 0-10 4.478-10 10s4.477 10 10 10h35c5.523 0 10-4.478 10-10z"/><path d="m138.425 151.299c-5.358-1.343-10.788 1.918-12.126 7.275l-4.905 19.618-2.188-2.917c-3.196-4.261-9.202-5.571-13.661-2.657-4.886 3.193-5.991 9.788-2.545 14.382l15 20c1.164 1.553 3.094 2.662 5.127 3.291 2.446.757 5.133.537 7.37-.709 2.472-1.377 4.561-3.584 5.204-6.157l10-40c1.34-5.358-1.918-10.787-7.276-12.126z"/><path d="m176 271c-5.523 0-10 4.478-10 10s4.477 10 10 10h15c5.523 0 10-4.478 10-10s-4.477-10-10-10z"/><path d="m216 241c0-5.522-4.477-10-10-10h-30c-5.523 0-10 4.478-10 10s4.477 10 10 10h30c5.523 0 10-4.478 10-10z"/><path d="m138.425 231.299c-5.358-1.346-10.788 1.918-12.126 7.275l-4.905 19.618-2.188-2.917c-3.196-4.261-9.202-5.571-13.661-2.657-4.886 3.193-5.991 9.788-2.545 14.382l15 20c.874 1.166 2.18 2.082 3.638 2.732 3.287 1.467 7.153 1.165 10.084-.924 1.917-1.366 3.446-3.249 3.979-5.383l10-40c1.34-5.358-1.918-10.787-7.276-12.126z"/><path d="m333.071 153.929c-3.905-3.904-10.237-3.904-14.143 0l-12.928 12.928-12.929-12.929c-3.905-3.904-10.237-3.904-14.143 0-3.905 3.905-3.905 10.237 0 14.143l12.929 12.929-12.929 12.929c-3.905 3.905-3.905 10.237 0 14.143 1.953 1.952 4.512 2.929 7.071 2.929s5.119-.977 7.071-2.929l12.93-12.929 12.929 12.929c1.953 1.952 4.512 2.929 7.071 2.929s5.119-.977 7.071-2.929c3.905-3.905 3.905-10.237 0-14.143l-12.928-12.929 12.929-12.929c3.905-3.905 3.905-10.237-.001-14.142z"/><path d="m333.071 233.929c-3.905-3.904-10.237-3.904-14.143 0l-12.928 12.928-12.929-12.929c-3.905-3.904-10.237-3.904-14.143 0-3.905 3.905-3.905 10.237 0 14.143l12.929 12.929-12.929 12.929c-3.905 3.905-3.905 10.237 0 14.143 1.953 1.952 4.512 2.929 7.071 2.929s5.119-.977 7.071-2.929l12.93-12.929 12.929 12.929c1.953 1.952 4.512 2.929 7.071 2.929s5.119-.977 7.071-2.929c3.905-3.905 3.905-10.237 0-14.143l-12.928-12.929 12.929-12.929c3.905-3.905 3.905-10.237-.001-14.142z"/><path d="m333.071 313.929c-3.905-3.904-10.237-3.904-14.143 0l-12.928 12.928-12.929-12.929c-3.905-3.904-10.237-3.904-14.143 0-3.905 3.905-3.905 10.237 0 14.143l12.929 12.929-12.929 12.929c-3.905 3.905-3.905 10.237 0 14.143 1.953 1.952 4.512 2.929 7.071 2.929s5.119-.977 7.071-2.929l12.93-12.929 12.929 12.929c1.953 1.952 4.512 2.929 7.071 2.929s5.119-.977 7.071-2.929c3.905-3.905 3.905-10.237 0-14.143l-12.928-12.929 12.929-12.929c3.905-3.905 3.905-10.237-.001-14.142z"/><path d="m333.071 393.929c-3.905-3.904-10.237-3.904-14.143 0l-12.928 12.928-12.929-12.929c-3.905-3.904-10.237-3.904-14.143 0-3.905 3.905-3.905 10.237 0 14.143l12.929 12.929-12.929 12.929c-3.905 3.905-3.905 10.237 0 14.143 1.953 1.952 4.512 2.929 7.071 2.929s5.119-.977 7.071-2.929l12.93-12.929 12.929 12.929c1.953 1.952 4.512 2.929 7.071 2.929s5.119-.977 7.071-2.929c3.905-3.905 3.905-10.237 0-14.143l-12.928-12.929 12.929-12.929c3.905-3.905 3.905-10.237-.001-14.142z"/></g></svg>